<svg xmlns="http://www.w3.org/2000/svg" xmlns:xlink="http://www.w3.org/1999/xlink" width="237.94000244140625" height="18.67999267578125" viewBox="0 0 237.94000244140625 18.67999267578125" fill="none">
<g >
<path     fill="#000000"  d="M0 15.8Q3.8 14.66 5.7 12.38L0 12.38L0 9.89999L7.12 9.89999Q7.46 9.01999 7.58 7.83999L0.84 7.83999L0.84 5.35999L17.16 5.35999L17.16 7.83999L10.24 7.83999Q10.16 8.83999 9.9 9.89999L18 9.89999L18 12.38L12.4 12.38L12.4 15.8L18.2 15.8L18.2 18.32L9.8 18.32L9.8 12.38L8.9 12.38Q6.5 16.62 0 18.68L0 15.8ZM0.28 1.31999L4.26 1.31999L4.26 0.0999947L6.86 0.0999947L6.86 1.31999L11.14 1.31999L11.14 0.0999947L13.74 0.0999947L13.74 1.31999L17.72 1.31999L17.72 3.81999L13.74 3.81999L13.74 4.93999L11.14 4.93999L11.14 3.81999L6.86 3.81999L6.86 4.93999L4.26 4.93999L4.26 3.81999L0.28 3.81999L0.28 1.31999ZM37.72 0.639994L37.72 18.4L35.28 18.4L35.28 13.46L33.82 13.46Q33.62 16.14 33.16 18.4L30.58 18.4Q31.1 16.34 31.31 14.39Q31.52 12.44 31.52 9.93999L31.52 0.639994L37.72 0.639994ZM19.72 18.4Q20.84 14.1 21.18 9.87999L23.64 9.87999Q23.24 14.82 22.34 18.4L19.72 18.4ZM19.9 5.01999L23.64 5.91999L23.64 8.53999L19.9 7.67999L19.9 5.01999ZM20.26 0.399994L23.6 1.24L23.6 3.91999L20.26 3.07999L20.26 0.399994ZM23.92 2.49999L26.2 2.49999L26.2 0.399994L28.72 0.399994L28.72 2.49999L30.94 2.49999L30.94 5.05999L28.72 5.05999L28.72 8.37999L30.62 8.37999L30.62 17.96L24.3 17.96L24.3 8.37999L26.2 8.37999L26.2 5.05999L23.92 5.05999L23.92 2.49999ZM28.28 15.4L28.28 10.94L26.64 10.94L26.64 15.4L28.28 15.4ZM35.28 10.94L35.28 8.33999L33.92 8.33999L33.92 9.93999L33.92 10.94L35.28 10.94ZM35.28 5.81999L35.28 3.19999L33.92 3.19999L33.92 5.81999L35.28 5.81999ZM40.96 6.87999L47.7 6.87999L47.7 4.45999L40 4.45999L40 1.89999L47.7 1.89999L47.7 -5.72205e-06L50.3 -5.72205e-06L50.3 1.89999L58 1.89999L58 4.45999L50.3 4.45999L50.3 6.87999L57.04 6.87999L57.04 16.8L52.88 16.8L52.88 14.24L54.48 14.24L54.48 9.45999L50.3 9.45999L50.3 18.4L47.7 18.4L47.7 9.45999L43.52 9.45999L43.52 16.8L40.96 16.8L40.96 6.87999ZM73.12 15.86L75.1 15.86L75.24 11.66L68.28 11.66L68.28 1.39999L71.44 1.39999L71.82 0.199993L74.44 0.199993L74.06 1.39999L77.12 1.39999L77.12 8.81999L74.64 8.81999L74.64 3.75999L70.76 3.75999L70.76 9.37999L77.92 9.37999L77.58 18.4L73.12 18.4L73.12 15.86ZM59.6 18.4Q60.34 16.18 60.63 13.96Q60.92 11.74 60.92 9.19999L60.92 5.61999L59.74 5.61999L59.74 3.01999L60.92 3.01999L60.92 0.399994L63.48 0.399994L63.48 3.01999L67.1 3.01999L67.1 15.8L67.96 15.8L67.96 18.4L64.72 18.4L64.72 5.61999L63.3 5.61999L63.3 9.19999Q63.3 11.62 63.07 13.87Q62.84 16.12 62.26 18.4L59.6 18.4ZM68.1 12.86L74.14 12.86L74.14 15.26L68.1 15.26L68.1 12.86ZM73.5 4.67999L74.08 8.39999L72.06 8.39999L71.42 4.67999L73.5 4.67999ZM79.82 18.4Q82 14.4 82.9 9.87999L85.72 9.87999Q84.74 15.12 82.88 18.4L79.82 18.4ZM80 5.09999L85.58 6.27999L85.58 9.03999L80 7.89999L80 5.09999ZM80.4 0.399994L85.54 1.51999L85.54 4.31999L80.4 3.19999L80.4 0.399994ZM85.38 15.38L90.26 15.38L90.26 3.97999L86.28 3.97999L86.28 1.33999L97.38 1.33999L97.38 3.97999L93.38 3.97999L93.38 15.38L98.06 15.38L98.06 18.2L85.38 18.2L85.38 15.38ZM100.72 0.859994L117.94 0.859994L117.94 3.41999L103.3 3.41999L103.3 15.38L117.94 15.38L117.94 17.94L100.72 17.94L100.72 0.859994ZM103.98 12.3Q106.9 11.18 108.78 9.97999Q106.14 7.39999 104.94 3.95999L108 3.95999Q109.04 6.55999 110.92 8.31999Q112.82 6.57999 113.86 3.95999L116.92 3.95999Q115.72 7.39999 113.08 9.97999Q114.96 11.18 117.88 12.3L117.88 15.12Q113.84 13.84 110.94 11.76Q108 13.84 103.98 15.12L103.98 12.3ZM132.2 0.279995L132.2 2.01999L138 2.01999L138 6.31999L135.46 6.31999L135.46 4.41999L132.2 4.41999Q132.16 8.29999 131.29 11.66Q130.42 15.02 128.52 18.4L125.18 18.4Q127.56 15 128.54 11.75Q129.52 8.49999 129.56 4.41999L128.18 4.41999L128.18 6.31999L125.64 6.31999L125.64 2.01999L129.56 2.01999L129.56 0.279995L132.2 0.279995ZM122.74 18.4Q124.16 14.86 124.78 9.87999L122.1 9.87999Q121.56 14.1 119.82 18.4L122.74 18.4ZM124.78 8.95999L124.78 6.27999L120 5.09999L120 7.81999L124.78 8.95999ZM124.74 4.23999L124.74 1.51999L120.4 0.399994L120.4 3.11999L124.74 4.23999ZM132.6 7.83999L135.22 7.83999L135.22 15.8L138.4 15.8L138.4 18.28L132.6 18.28L132.6 7.83999ZM142.68 12.24Q141.38 13.2 139.8 13.74L139.8 11.14Q141.08 10.62 141.93 9.77999Q142.78 8.93999 143.26 7.73999L140 7.73999L140 5.25999L144.06 5.25999L144.06 3.65999L140.7 3.65999L140.7 1.21999L144.06 1.21999L144.06 -5.72205e-06L146.64 -5.72205e-06L146.64 1.21999L151.36 1.21999L151.36 -5.72205e-06L153.94 -5.72205e-06L153.94 1.21999L157.3 1.21999L157.3 3.65999L153.94 3.65999L153.94 5.25999L158 5.25999L158 7.73999L154.74 7.73999Q155.22 8.93999 156.07 9.77999Q156.92 10.62 158.2 11.14L158.2 13.74Q156.18 13.02 154.8 11.82L154.8 14.62L145.28 14.62L145.28 15.9L156.8 15.9L156.8 18.3L142.68 18.3L142.68 12.24ZM152.28 12.38L152.28 11.12L145.28 11.12L145.28 12.38L152.28 12.38ZM152.62 8.87999Q152.38 8.33999 152.2 7.73999L145.8 7.73999Q145.62 8.33999 145.38 8.87999L152.62 8.87999ZM151.36 5.25999L151.36 3.65999L146.64 3.65999L146.64 5.25999L151.36 5.25999ZM161.58 12.24L159.8 12.24L159.8 9.75999L161.58 9.75999L161.58 8.09999L160.6 8.09999L160.6 6.99999L159.62 6.99999Q160.82 3.71999 161.12 0.399994L163.88 0.399994L163.74 1.7L166.18 1.7L166.18 4.17999L163.32 4.17999L162.96 5.65999L165.98 5.65999L165.98 8.09999L164.1 8.09999L164.1 9.75999L166.28 9.75999L166.28 12.24L164.1 12.24L164.1 15.5L165.92 15.12L165.92 17.7L161.58 18.6L161.58 12.24ZM166.16 12.72L167.22 12.72L167.22 3.59999L170.92 3.59999L170.92 2.97999L166.42 2.97999L166.42 0.979995L170.92 0.979995L170.92 0.119995L173.52 0.119995L173.52 0.979995L178.02 0.979995L178.02 2.97999L173.52 2.97999L173.52 3.59999L177.22 3.59999L177.22 12.72L178.28 12.72L178.28 15.04L166.16 15.04L166.16 12.72ZM166.58 18.4Q167.46 16.88 167.92 15.56L170.82 15.56Q170.46 16.66 169.52 18.4L166.58 18.4ZM174.66 12.86L174.66 12.24L169.78 12.24L169.78 12.86L174.66 12.86ZM174.66 10.62L174.66 9.99999L169.78 9.99999L169.78 10.62L174.66 10.62ZM174.66 8.37999L174.66 7.75999L169.78 7.75999L169.78 8.37999L174.66 8.37999ZM174.66 6.13999L174.66 5.51999L169.78 5.51999L169.78 6.13999L174.66 6.13999ZM176.52 15.56Q176.98 16.88 177.86 18.4L174.92 18.4Q174.2 17.06 173.62 15.56L176.52 15.56ZM179.68 17.7Q183.04 12.1 184.38 6.23999L180 6.23999L180 3.67999L187.36 3.67999Q186.72 7.69999 185.61 11.11Q184.5 14.52 182.72 17.7L179.68 17.7ZM185.36 15.84L188.06 15.84L188.06 0.199993L190.62 0.199993L190.62 6.93999Q191.24 7.27999 191.64 7.55999L191.64 5.29999Q194.42 4.35999 195.26 1.79999L197.78 1.79999Q197.26 4.01999 195.81 5.53999Q194.36 7.05999 191.9 7.73999Q197.04 11.16 198.1 17.7L195.46 17.7Q194.46 12.4 190.62 10.1L190.62 18.4L185.36 18.4L185.36 15.84ZM212.98 15.84L215.26 15.84L215.26 0.399994L217.76 0.399994L217.76 18.4L212.98 18.4L212.98 15.84ZM200 17.62Q200.48 15.3 200.7 13.3Q200.92 11.3 200.92 8.93999L203.42 8.93999Q203.42 11.42 203.23 13.42Q203.04 15.42 202.62 17.62L200 17.62ZM200.06 5.53999L204.26 5.53999L204.26 3.35999Q202.42 3.43999 200.48 3.43999L200.48 0.919994Q202.54 0.919994 205.35 0.759995Q208.16 0.599995 210.22 0.339994L210.22 2.87999Q208.74 3.09999 206.94 3.21999L206.94 5.53999L210.64 5.53999L210.64 8.05999L206.94 8.05999L206.94 18.4L204.26 18.4L204.26 8.05999L200.06 8.05999L200.06 5.53999ZM209.9 8.93999Q210.6 12.54 210.66 17L208.28 17Q208.22 12.66 207.5 8.93999L209.9 8.93999ZM211.66 1.5L214 1.5L214 14.2L211.66 14.2L211.66 1.5ZM237.26 18.2L228.04 18.2L228.04 8.51999L231.4 8.51999L231.4 0.299995L234 0.299995L234 2.85999L237.94 2.85999L237.94 5.45999L234 5.45999L234 8.51999L237.26 8.51999L237.26 18.2ZM219.8 14.78L227.64 14.38L227.64 17L219.8 17.4L219.8 14.78ZM219.98 2.69999L222.44 2.69999L222.44 0.399994L225.02 0.399994L225.02 2.69999L227.46 2.69999L227.46 5.29999L219.98 5.29999L219.98 2.69999ZM222.62 6.21999L223.16 13.82L220.98 13.82L220.44 6.21999L222.62 6.21999ZM224.72 6.21999L226.9 6.21999L226.16 13.82L223.98 13.82L224.72 6.21999ZM234.74 15.62L234.74 11.1L230.56 11.1L230.56 15.62L234.74 15.62Z">
</path>
</g>
</svg>
