<svg xmlns="http://www.w3.org/2000/svg" xmlns:xlink="http://www.w3.org/1999/xlink" width="44.000152587890625" height="30" viewBox="0 0 44.000152587890625 30" fill="none">
<path d="M38.2987 15.05C38.2987 22.0907 30.9978 27.7984 21.9919 27.7984C12.9859 27.7984 5.68506 22.0907 5.68506 15.05C5.68506 8.00932 12.9859 2.3017 21.9919 2.3017C30.9978 2.3017 38.2987 8.00932 38.2987 15.05ZM35.6392 15.05C35.6392 14.4103 35.5578 13.7795 35.395 13.1575C35.2339 12.5428 34.9954 11.9433 34.6793 11.359C34.3607 10.7702 33.9688 10.2066 33.5036 9.66819C33.0308 9.1211 32.4919 8.61109 31.8871 8.13816C31.27 7.6558 30.5975 7.22237 29.8694 6.83787C29.1244 6.44433 28.3366 6.11025 27.5061 5.83565C26.6527 5.55344 25.7704 5.33946 24.8592 5.19368C23.9186 5.04324 22.9629 4.96801 21.9919 4.96801C21.0209 4.96801 20.0651 5.04324 19.1246 5.19368C18.2134 5.33947 17.331 5.55346 16.4776 5.83565C15.6471 6.11025 14.8594 6.44433 14.1142 6.83787C13.3862 7.22237 12.7137 7.6558 12.0967 8.13816C11.4918 8.61109 10.953 9.1211 10.4802 9.66819C10.0149 10.2066 9.62295 10.7702 9.30439 11.359C8.98828 11.9433 8.74977 12.5428 8.58888 13.1575C8.42608 13.7795 8.34468 14.4103 8.34468 15.05C8.34468 15.6897 8.42608 16.3205 8.58888 16.9425C8.74979 17.5572 8.98829 18.1567 9.30439 18.741C9.62295 19.3298 10.0149 19.8934 10.4802 20.4318C10.953 20.979 11.4918 21.489 12.0967 21.9619C12.7137 22.4442 13.3862 22.8777 14.1142 23.2622C14.8594 23.6557 15.6471 23.9898 16.4776 24.2644C17.3311 24.5466 18.2134 24.7605 19.1246 24.9062C20.0651 25.0568 21.0209 25.1321 21.9919 25.1321C22.9629 25.1321 23.9186 25.0568 24.8592 24.9062C25.7704 24.7605 26.6527 24.5466 27.5061 24.2644C28.3366 23.9898 29.1244 23.6557 29.8694 23.2622C30.5975 22.8777 31.27 22.4442 31.8871 21.9619C32.4919 21.4889 33.0308 20.9789 33.5036 20.4318C33.9688 19.8934 34.3607 19.3298 34.6793 18.741C34.9954 18.1567 35.2339 17.5572 35.395 16.9425C35.5578 16.3205 35.6392 15.6897 35.6392 15.05Z" fill-rule="evenodd"  fill="#2A82E4" >
</path>
<g mask="url(#mask-2_32)">
<path d="M22.7732 6.3345L32.8465 6.3345L32.8465 23.4989L22.7732 23.4989L22.7732 6.3345Z"   fill="#2A82E4" >
</path>
</g>
<g mask="url(#mask-2_33)">
<path d="M21.2271 6.26782L11.1537 6.26782L11.1537 23.4322L21.2271 23.4322L21.2271 6.26782Z"   fill="#2A82E4" >
</path>
</g>
<path d="M22.2059 0.00199316C21.2879 0.00309395 20.5445 0.750082 20.5456 1.67044L20.5774 28.3335C20.5785 29.2538 21.3237 29.9991 22.2417 29.998C23.1597 29.9969 23.9031 29.2499 23.902 28.3295L23.8702 1.66645C23.8691 0.746096 23.1239 0.00089237 22.2059 0.00199316Z" fill-rule="evenodd"  fill="#2A82E4" >
</path>
<defs>
<mask id="mask-2_32" style="mask-type:alpha" maskUnits="userSpaceOnUse">
<path d="M40.9229 3.8772C41.9328 3.71565 42.9584 3.63487 43.9997 3.63487L43.9997 0.968567C42.8178 0.968567 41.6525 1.06045 40.5038 1.24421C39.3816 1.42373 38.2923 1.68814 37.2359 2.03743C36.195 2.38162 35.2039 2.80225 34.2627 3.29935C33.3255 3.79437 32.4551 4.35597 31.6515 4.98416C30.8419 5.61707 30.1158 6.30541 29.4731 7.04918C28.8182 7.80703 28.2624 8.60795 27.8058 9.45193C27.3366 10.3192 26.9808 11.216 26.7383 12.1421C26.4885 13.0968 26.3635 14.066 26.3635 15.0497C26.3635 16.0334 26.4885 17.0026 26.7383 17.9573C26.9808 18.8835 27.3366 19.7802 27.8058 20.6475C28.2624 21.4915 28.8182 22.2924 29.4731 23.0502C30.1158 23.794 30.8419 24.4824 31.6515 25.1153C32.4551 25.7435 33.3255 26.3051 34.2627 26.8001C35.2039 27.2971 36.195 27.7177 37.2359 28.0619C38.2923 28.4113 39.3816 28.6757 40.5038 28.8553C41.6525 29.0391 42.8178 29.131 43.9997 29.131L43.9997 26.4645C42.9584 26.4645 41.9328 26.3837 40.9229 26.2223C39.9413 26.0653 38.99 25.8345 38.069 25.53C37.1684 25.2321 36.3128 24.8691 35.5024 24.4411C34.7046 24.0198 33.9662 23.5436 33.287 23.0127C32.6139 22.4865 32.0126 21.917 31.4832 21.3044C30.9548 20.6928 30.5082 20.0501 30.1437 19.3763C29.7765 18.6977 29.4989 17.9991 29.3109 17.2806C29.119 16.5477 29.0231 15.8041 29.0231 15.0497C29.0231 14.2954 29.1191 13.5517 29.3109 12.8189C29.4989 12.1003 29.7765 11.4018 30.1437 10.7231C30.5082 10.0493 30.9548 9.40659 31.4832 8.79504C32.0126 8.1824 32.6139 7.61297 33.287 7.08674C33.9662 6.55578 34.7046 6.07963 35.5024 5.6583C36.3128 5.23027 37.1684 4.86735 38.069 4.56956C38.99 4.26501 39.9413 4.03422 40.9229 3.8772Z" fill-rule="evenodd"  fill="#2A82E4" >
</path>
</mask>
<mask id="mask-2_33" style="mask-type:alpha" maskUnits="userSpaceOnUse">
<path d="M3.07726 3.81056C2.06734 3.649 1.04174 3.56822 0.000432968 3.56822L0.000432968 0.901917C1.18232 0.901917 2.34762 0.993797 3.49634 1.17756C4.61859 1.35708 5.70789 1.62149 6.76424 1.97078C7.80518 2.31497 8.79623 2.73561 9.73741 3.2327C10.6747 3.72772 11.5451 4.28932 12.3486 4.91751C13.1582 5.55043 13.8844 6.23877 14.5271 6.98253C15.182 7.74038 15.7377 8.5413 16.1944 9.38529C16.6636 10.2526 17.0194 11.1493 17.2618 12.0755C17.5117 13.0302 17.6366 13.9994 17.6366 14.9831C17.6366 15.9668 17.5117 16.9359 17.2618 17.8906C17.0194 18.8168 16.6636 19.7135 16.1944 20.5809C15.7377 21.4248 15.182 22.2258 14.5271 22.9836C13.8844 23.7274 13.1582 24.4157 12.3486 25.0487C11.5451 25.6768 10.6747 26.2384 9.73741 26.7335C8.79623 27.2305 7.80518 27.6511 6.76424 27.9953C5.70787 28.3446 4.61857 28.6091 3.49634 28.7886C2.34762 28.9724 1.18232 29.0643 0.000432968 29.0643L0.000432968 26.3978C1.04174 26.3978 2.06734 26.3171 3.07726 26.1557C4.05881 25.9986 5.01012 25.7678 5.93119 25.4633C6.83179 25.1654 7.68732 24.8025 8.49777 24.3745C9.29551 23.9531 10.034 23.477 10.7131 22.946C11.3862 22.4198 11.9875 21.8504 12.5169 21.2377C13.0454 20.6262 13.4919 19.9835 13.8565 19.3096C14.2236 18.631 14.5012 17.9325 14.6893 17.2139C14.8811 16.481 14.977 15.7374 14.977 14.9831C14.977 14.2287 14.8811 13.4851 14.6893 12.7522C14.5012 12.0337 14.2236 11.3351 13.8565 10.6565C13.4919 9.98264 13.0454 9.33994 12.5169 8.72839C11.9875 8.11575 11.3863 7.54632 10.7131 7.02009C10.034 6.48913 9.29551 6.01298 8.49777 5.59165C7.68731 5.16362 6.83178 4.8007 5.93119 4.50291C5.01012 4.19836 4.05881 3.96757 3.07726 3.81056Z" fill-rule="evenodd"  fill="#2A82E4" >
</path>
</mask>
</defs>
</svg>
